# xmcd
#
# Track frame offsets:
# 150
# 12488
# 23070
# 39853
# 55225
# 75758
# 92900
# 108218
# 121125
# 138998
#
# Disc length: 2039 seconds
#
#
# Revision: 0
# Processed by: cddbd v1.5.2PL0 Copyright (c) Steve Scherf et al.
# Submitted via: FreeRIP 2.96 
#
DISCID=6b07f50a
DTITLE=Garry and The Moodswingers - Treat Me Like A Job
DYEAR=1990
DGENRE=Classic Rock
TTITLE0=Far Cry
TTITLE1=Treat Me Like A Job
TTITLE2=Thought About It
TTITLE3=Sweet Love
TTITLE4=Moodswing
TTITLE5=Goin' Lonely
TTITLE6=One Horse Town
TTITLE7=Guard My Heart
TTITLE8=You're Lyin'
TTITLE9=Blue In The Fingers
EXTD=
EXTT0=
EXTT1=
EXTT2=
EXTT3=
EXTT4=
EXTT5=
EXTT6=
EXTT7=
EXTT8=
EXTT9=
PLAYORDER=
